<svg xmlns="http://www.w3.org/2000/svg" width="933.333" height="933.333" viewBox="0 0 700 700" preserveAspectRatio="xMidYMid meet"><path d="M322 1c-99.6 9.2-184.6 54.5-245.9 131-40.2 50.1-65.2 110.1-73.8 176.5-2.7 21.2-2.4 63.4.5 85.3 10.6 78.4 44.7 147.8 99.7 202.7 55.9 55.8 124.7 89.5 205.1 100.2 18.3 2.4 65.7 2.4 83.9 0 52.9-7.1 100.1-23.8 143.1-50.8 83.7-52.4 141.3-137.2 158.8-233.9 4.2-23.5 5.1-34.1 5.1-62.5s-.9-39-5.1-62.5C671.5 166.2 587 65.1 471.8 22.1 446.1 12.5 418.3 5.7 391 2.5 375.2.6 335.7-.2 322 1zm172.4 191.4c7.5 3.1 14.5 12.1 14.6 18.8 0 6.4-11.7 42.5-52.2 161.3-47.4 138.8-60.4 172.8-68.8 179.8-4.5 3.9-10.1 5.1-16.2 3.7-12.8-3.1-18.5-11.6-53.6-79.7-21.3-41.3-27.8-53-31.1-56.7-6-6.5-24.5-18-52.6-32.6-44.7-23.2-53.4-27.9-63.8-34.6-15.2-9.8-20.4-17.7-19.4-29.1 1.7-17.5 8.9-21.2 107.2-55.8l93-32.7c62.7-22.1 100.9-34.9 118.5-39.8l12.5-3.5c2.5-.8 8.9-.4 11.9.9z"/></svg>