<svg xmlns="http://www.w3.org/2000/svg" viewBox="0 0 240 240"><circle cx="120" cy="120" r="120" fill="#4ea4f6"/><path d="M44.69 125.87c14.028-7.727 29.687-14.176 44.318-20.658l75.968-30.763c4.966-1.655 13.9-3.273 14.765 4.087-.48 10.418-2.45 20.775-3.802 31.132-3.43 22.776-7.398 45.474-11.265 68.175-1.333 7.562-10.805 11.476-16.866 6.637l-43.624-29.65c-4.7-4.786-.342-11.66 3.865-15.078 11.997-11.823 24.72-21.868 36.1-34.302 3.067-7.406-5.995-1.165-8.984.748-16.424 11.318-32.446 23.327-49.762 33.274-8.845 4.87-19.154.708-27.995-2.01-7.927-3.282-19.543-6.59-12.708-11.593z" fill="#fff"/></svg>