<svg xmlns="http://www.w3.org/2000/svg" width="1397.333" height="1397.333" viewBox="0 0 1048 1048" preserveAspectRatio="xMidYMid meet"><path d="M477.4 13.5C373.1 23.3 276 63.3 197 129.1 113 199 54.5 291.2 27.5 396.4c-7.3 28.5-11.4 52.8-14.1 83.6-2 23.3-1.5 78.2 1 99 12.3 103.8 50.9 194.1 116.5 273 5.3 6.3 17.4 19.5 27.1 29.3 27.6 28.2 49.8 46.6 81.2 67.7 69.2 46.3 146.9 74.4 231.8 83.7 20.2 2.2 81.5 2.5 100 .5 65.9-7.1 120.5-22.4 175.5-49.1 52.8-25.7 96.1-56.6 138.5-99.1 42.5-42.4 73.4-85.7 99.1-138.5 26.7-55 42-109.6 49.1-175.5 2-18.5 1.7-79.8-.5-100-11.7-106.8-53.6-203.3-123.1-283.5-13.3-15.3-42.7-44.2-57.6-56.6C773.1 65.3 683 26.8 579 14.4c-18.4-2.2-81.9-2.8-101.6-.9zm260.4 281.4c10.7 5.5 18.2 16.3 18.2 26.1 0 11.1-12 48.5-73.5 228.5l-78 221c-15.4 38.9-20 47.2-28.7 52-4.6 2.6-6.3 3-13.3 3-9.9 0-16.9-2.9-24.2-10.1-8.6-8.5-23.8-34.9-55.5-96.9-35.8-69.9-46.5-89.2-52.3-94.8-5-5-22.2-16.3-39.3-26.1-12.4-7.1-21.7-12.1-79.7-42.3-48.2-25.2-67.1-37.9-74.1-49.8-5-8.6-5.2-25-.4-34.4 6.8-13.4 30.6-24.3 129.5-59.1l350-119.3c4.7-1.3 17 0 21.3 2.2z"/></svg>