<svg xmlns="http://www.w3.org/2000/svg" width="160" height="160"><path fill="#50a2e9" fill-rule="evenodd" d="M80 0c44.183 0 80 35.817 80 80s-35.817 80-80 80S0 124.183 0 80 35.817 0 80 0zm34.263 46.452h-.14c-3.034.054-7.64 1.626-28.995 10.486l-3.716 1.547L34.596 78.67c-3.937 1.565-6 3.097-6.187 4.594-.346 2.762 3.46 3.697 8.38 5.267l1.475.474c4.128 1.3 9.29 2.72 12.06 2.78 2.6.056 5.47-.968 8.638-3.073l11.55-7.78L94.4 65.278l.277-.06c.482-.095 1.06-.145 1.47.22.486.432.44 1.25.387 1.47-.408 1.737-21.25 20.707-22.872 22.334l-.35.36c-4.548 4.624-9.41 7.57-1.748 12.754l1.796 1.19 15.45 10.414 1.577 1.038c4.678 3.066 8.345 6.702 13.175 6.257 2.178-.2 4.426-2.21 5.613-8.156l.07-.37c2.755-14.727 8.17-46.635 9.423-59.784.1-1.152-.028-2.626-.14-3.274l-.056-.293c-.133-.613-.406-1.374-1.127-1.96-.934-.758-2.345-.955-3.084-.967z"/></svg>